<svg width="24" height="24" viewBox="0 0 24 24" fill="none" xmlns="http://www.w3.org/2000/svg">
<path d="M5.26907 9.75003C5.26783 8.86054 5.44265 7.9796 5.78346 7.15799C6.12427 6.33638 6.62433 5.59034 7.2548 4.96289C7.88528 4.33544 8.63371 3.83898 9.45696 3.50213C10.2802 3.16528 11.162 2.9947 12.0514 3.00022C15.763 3.02781 18.7317 6.11285 18.7317 9.83477V10.5C18.7317 13.8577 19.4342 15.8062 20.053 16.8711C20.1196 16.9849 20.1551 17.1143 20.1558 17.2461C20.1565 17.378 20.1224 17.5077 20.057 17.6222C19.9915 17.7367 19.8971 17.8319 19.7831 17.8983C19.6691 17.9646 19.5397 17.9997 19.4078 18H4.59225C4.46037 17.9997 4.3309 17.9646 4.21692 17.8982C4.10294 17.8319 4.00847 17.7366 3.94304 17.6221C3.87762 17.5076 3.84355 17.3779 3.84428 17.246C3.84501 17.1141 3.88051 16.9847 3.94719 16.8709C4.56625 15.806 5.26907 13.8576 5.26907 10.5L5.26907 9.75003Z" stroke="#172765" stroke-width="1.5" stroke-linecap="round" stroke-linejoin="round"/>
<path d="M9 18V18.75C9 19.5456 9.31607 20.3087 9.87868 20.8713C10.4413 21.4339 11.2044 21.75 12 21.75C12.7956 21.75 13.5587 21.4339 14.1213 20.8713C14.6839 20.3087 15 19.5456 15 18.75V18" stroke="#172765" stroke-width="1.5" stroke-linecap="round" stroke-linejoin="round"/>
</svg>
