<svg width="24" height="24" viewBox="0 0 24 24" fill="none" xmlns="http://www.w3.org/2000/svg">
<path d="M12 12V3" stroke="white" stroke-width="1.5" stroke-linecap="round" stroke-linejoin="round"/>
<path d="M19.7941 7.5L4.20569 16.5" stroke="white" stroke-width="1.5" stroke-linecap="round" stroke-linejoin="round"/>
<path d="M3.15008 13.6454C2.76041 11.5366 3.13532 9.35796 4.20749 7.50072C5.27966 5.64348 6.97883 4.22933 8.99988 3.51221V10.268L3.15008 13.6454Z" stroke="white" stroke-width="1.5" stroke-linecap="round" stroke-linejoin="round"/>
<path d="M12.0001 3C13.5769 3.00029 15.126 3.41485 16.4922 4.20216C17.8583 4.98947 18.9937 6.1219 19.7846 7.48605C20.5754 8.8502 20.994 10.3982 20.9984 11.975C21.0028 13.5518 20.5928 15.1021 19.8095 16.4706C19.0263 17.8391 17.8972 18.9779 16.5354 19.7728C15.1736 20.5676 13.6269 20.9908 12.0501 20.9999C10.4733 21.0089 8.92179 20.6035 7.55095 19.8243C6.18012 19.0451 5.03806 17.9194 4.23914 16.56" stroke="white" stroke-width="1.5" stroke-linecap="round" stroke-linejoin="round"/>
</svg>
