<svg width="16" height="16" viewBox="0 0 16 16" fill="none" xmlns="http://www.w3.org/2000/svg">
<path d="M1.66669 7.75623L1.20245 7.57054C1.15477 7.68974 1.15477 7.82272 1.20245 7.94193L1.66669 7.75623ZM14.3334 7.75623L14.7976 7.94193C14.8453 7.82272 14.8453 7.68974 14.7976 7.57053L14.3334 7.75623ZM8.00001 11.78C5.92409 11.78 4.4659 10.7474 3.50857 9.68365C3.02955 9.15141 2.6823 8.61748 2.45512 8.21657C2.34181 8.01661 2.25915 7.85113 2.20554 7.73741C2.17875 7.68058 2.15927 7.6368 2.14689 7.60823C2.1407 7.59395 2.1363 7.58349 2.13364 7.57711C2.13232 7.57393 2.13143 7.57176 2.13098 7.57065C2.13075 7.5701 2.13063 7.56981 2.13063 7.56979C2.13062 7.56978 2.13064 7.56984 2.13069 7.56996C2.13072 7.57002 2.13078 7.57017 2.13079 7.5702C2.13085 7.57036 2.13093 7.57054 1.66669 7.75623C1.20245 7.94193 1.20253 7.94214 1.20263 7.94237C1.20267 7.94247 1.20277 7.94272 1.20285 7.94292C1.20301 7.94332 1.20319 7.94378 1.20341 7.94432C1.20385 7.9454 1.20439 7.94675 1.20505 7.94837C1.20638 7.95161 1.20815 7.95593 1.21039 7.9613C1.21486 7.97205 1.22116 7.98698 1.22933 8.00584C1.24567 8.04354 1.26949 8.09695 1.30101 8.16382C1.36403 8.29749 1.45808 8.48543 1.5851 8.70958C1.83857 9.15689 2.22643 9.75391 2.76527 10.3526C3.84365 11.5508 5.55211 12.78 8.00001 12.78V11.78ZM1.66669 7.75623C2.13093 7.94193 2.13085 7.9421 2.13079 7.94227C2.13078 7.9423 2.13072 7.94244 2.13069 7.9425C2.13064 7.94263 2.13062 7.94268 2.13063 7.94267C2.13063 7.94265 2.13075 7.94236 2.13098 7.94181C2.13143 7.9407 2.13232 7.93854 2.13364 7.93535C2.1363 7.92897 2.1407 7.91851 2.14689 7.90423C2.15927 7.87566 2.17875 7.83188 2.20554 7.77506C2.25915 7.66133 2.34181 7.49585 2.45512 7.29589C2.6823 6.89498 3.02955 6.36105 3.50857 5.82881C4.4659 4.7651 5.92409 3.73242 8.00001 3.73242V2.73242C5.55211 2.73242 3.84365 3.96164 2.76527 5.15984C2.22643 5.75856 1.83857 6.35557 1.5851 6.80288C1.45808 7.02703 1.36403 7.21497 1.30101 7.34864C1.26949 7.41551 1.24567 7.46892 1.22933 7.50662C1.22116 7.52548 1.21486 7.54042 1.21039 7.55116C1.20815 7.55653 1.20638 7.56085 1.20505 7.5641C1.20439 7.56572 1.20385 7.56707 1.20341 7.56814C1.20319 7.56868 1.20301 7.56915 1.20285 7.56955C1.20277 7.56975 1.20267 7.56999 1.20263 7.57009C1.20253 7.57032 1.20245 7.57054 1.66669 7.75623ZM8.00001 3.73242C10.0759 3.73242 11.5341 4.7651 12.4915 5.82881C12.9705 6.36105 13.3177 6.89499 13.5449 7.29589C13.6582 7.49585 13.7409 7.66133 13.7945 7.77506C13.8213 7.83188 13.8408 7.87567 13.8531 7.90423C13.8593 7.91851 13.8637 7.92897 13.8664 7.93535C13.8677 7.93854 13.8686 7.9407 13.8691 7.94181C13.8693 7.94237 13.8694 7.94266 13.8694 7.94268C13.8694 7.94269 13.8694 7.94263 13.8693 7.94251C13.8693 7.94244 13.8693 7.9423 13.8693 7.94227C13.8692 7.94211 13.8691 7.94193 14.3334 7.75623C14.7976 7.57053 14.7975 7.57032 14.7974 7.57009C14.7974 7.56999 14.7973 7.56974 14.7972 7.56954C14.797 7.56914 14.7968 7.56868 14.7966 7.56814C14.7962 7.56706 14.7956 7.56571 14.795 7.56409C14.7937 7.56085 14.7919 7.55653 14.7896 7.55116C14.7852 7.54041 14.7789 7.52548 14.7707 7.50662C14.7544 7.46892 14.7306 7.41551 14.699 7.34864C14.636 7.21497 14.542 7.02703 14.4149 6.80288C14.1615 6.35557 13.7736 5.75856 13.2348 5.15984C12.1564 3.96164 10.4479 2.73242 8.00001 2.73242V3.73242ZM14.3334 7.75623C13.8691 7.57053 13.8692 7.57036 13.8693 7.5702C13.8693 7.57016 13.8693 7.57002 13.8693 7.56996C13.8694 7.56983 13.8694 7.56978 13.8694 7.56979C13.8694 7.56981 13.8693 7.5701 13.8691 7.57065C13.8686 7.57176 13.8677 7.57392 13.8664 7.57711C13.8637 7.58349 13.8593 7.59395 13.8531 7.60823C13.8408 7.6368 13.8213 7.68058 13.7945 7.7374C13.7409 7.85113 13.6582 8.01661 13.5449 8.21657C13.3177 8.61748 12.9705 9.15141 12.4915 9.68365C11.5341 10.7474 10.0759 11.78 8.00001 11.78V12.78C10.4479 12.78 12.1564 11.5508 13.2348 10.3526C13.7736 9.75391 14.1615 9.15689 14.4149 8.70958C14.542 8.48543 14.636 8.29749 14.699 8.16382C14.7306 8.09695 14.7544 8.04354 14.7707 8.00584C14.7789 7.98699 14.7852 7.97205 14.7896 7.96131C14.7919 7.95593 14.7937 7.95161 14.795 7.94837C14.7956 7.94675 14.7962 7.9454 14.7966 7.94432C14.7968 7.94379 14.797 7.94332 14.7972 7.94292C14.7973 7.94272 14.7974 7.94247 14.7974 7.94237C14.7975 7.94214 14.7976 7.94193 14.3334 7.75623ZM8.00002 9.06576C7.27679 9.06576 6.6905 8.47946 6.6905 7.75623H5.6905C5.6905 9.03175 6.72451 10.0658 8.00002 10.0658V9.06576ZM9.30954 7.75623C9.30954 8.47946 8.72325 9.06576 8.00002 9.06576V10.0658C9.27553 10.0658 10.3095 9.03175 10.3095 7.75623H9.30954ZM8.00002 6.44671C8.72325 6.44671 9.30954 7.033 9.30954 7.75623H10.3095C10.3095 6.48072 9.27553 5.44671 8.00002 5.44671V6.44671ZM8.00002 5.44671C6.72451 5.44671 5.6905 6.48072 5.6905 7.75623H6.6905C6.6905 7.033 7.27679 6.44671 8.00002 6.44671V5.44671Z" fill="#172765"/>
<line x1="3.80017" y1="11.9966" x2="13.13" y2="2.66672" stroke="white" stroke-width="2" stroke-linecap="round" stroke-linejoin="round"/>
<line x1="3.41309" y1="12.5251" x2="12.706" y2="3.23224" stroke="#172765" stroke-linecap="round" stroke-linejoin="round"/>
</svg>
