<svg width="16" height="16" viewBox="0 0 16 16" fill="none" xmlns="http://www.w3.org/2000/svg">
<path d="M1.66663 7.75626L1.20239 7.57057C1.15471 7.68977 1.15471 7.82275 1.20239 7.94196L1.66663 7.75626ZM14.3333 7.75626L14.7975 7.94196C14.8452 7.82275 14.8452 7.68977 14.7975 7.57057L14.3333 7.75626ZM7.99995 11.7801C5.92403 11.7801 4.46584 10.7474 3.5085 9.68368C3.02949 9.15144 2.68224 8.61751 2.45506 8.2166C2.34175 8.01665 2.25909 7.85116 2.20548 7.73744C2.17869 7.68061 2.15921 7.63683 2.14683 7.60826C2.14064 7.59399 2.13624 7.58352 2.13358 7.57714C2.13226 7.57396 2.13137 7.57179 2.13092 7.57068C2.13069 7.57013 2.13057 7.56984 2.13056 7.56982C2.13056 7.56981 2.13058 7.56987 2.13063 7.56999C2.13066 7.57005 2.13072 7.5702 2.13073 7.57023C2.13079 7.57039 2.13086 7.57057 1.66663 7.75626C1.20239 7.94196 1.20247 7.94217 1.20256 7.9424C1.2026 7.9425 1.2027 7.94275 1.20278 7.94295C1.20294 7.94335 1.20313 7.94381 1.20335 7.94435C1.20379 7.94543 1.20433 7.94678 1.20499 7.9484C1.20632 7.95164 1.20809 7.95596 1.21033 7.96133C1.2148 7.97208 1.2211 7.98701 1.22927 8.00587C1.24561 8.04357 1.26942 8.09698 1.30095 8.16385C1.36396 8.29752 1.45802 8.48546 1.58503 8.70961C1.83851 9.15692 2.22637 9.75394 2.76521 10.3526C3.84359 11.5508 5.55205 12.7801 7.99995 12.7801V11.7801ZM1.66663 7.75626C2.13086 7.94196 2.13079 7.94213 2.13073 7.9423C2.13072 7.94233 2.13066 7.94247 2.13063 7.94253C2.13058 7.94266 2.13056 7.94271 2.13056 7.9427C2.13057 7.94268 2.13069 7.94239 2.13092 7.94184C2.13137 7.94073 2.13226 7.93857 2.13358 7.93538C2.13624 7.929 2.14064 7.91854 2.14683 7.90426C2.15921 7.87569 2.17869 7.83191 2.20548 7.77509C2.25909 7.66136 2.34175 7.49588 2.45506 7.29592C2.68224 6.89502 3.02949 6.36108 3.5085 5.82884C4.46584 4.76513 5.92403 3.73245 7.99995 3.73245V2.73245C5.55205 2.73245 3.84359 3.96167 2.76521 5.15988C2.22637 5.75859 1.83851 6.3556 1.58503 6.80291C1.45802 7.02706 1.36396 7.215 1.30095 7.34867C1.26942 7.41554 1.24561 7.46895 1.22927 7.50665C1.2211 7.52551 1.2148 7.54045 1.21033 7.55119C1.20809 7.55656 1.20632 7.56088 1.20499 7.56413C1.20433 7.56575 1.20379 7.5671 1.20335 7.56817C1.20313 7.56871 1.20294 7.56918 1.20278 7.56958C1.2027 7.56978 1.2026 7.57002 1.20256 7.57012C1.20247 7.57035 1.20239 7.57057 1.66663 7.75626ZM7.99995 3.73245C10.0759 3.73245 11.5341 4.76514 12.4914 5.82884C12.9704 6.36108 13.3177 6.89502 13.5449 7.29592C13.6582 7.49588 13.7408 7.66136 13.7944 7.77509C13.8212 7.83191 13.8407 7.8757 13.8531 7.90426C13.8593 7.91854 13.8637 7.92901 13.8663 7.93538C13.8677 7.93857 13.8686 7.94073 13.869 7.94184C13.8692 7.9424 13.8693 7.94269 13.8694 7.94271C13.8694 7.94272 13.8693 7.94266 13.8693 7.94254C13.8693 7.94247 13.8692 7.94233 13.8692 7.9423C13.8691 7.94214 13.8691 7.94196 14.3333 7.75626C14.7975 7.57057 14.7974 7.57035 14.7974 7.57012C14.7973 7.57002 14.7972 7.56977 14.7971 7.56957C14.797 7.56918 14.7968 7.56871 14.7966 7.56817C14.7961 7.56709 14.7956 7.56574 14.7949 7.56412C14.7936 7.56088 14.7918 7.55656 14.7896 7.55119C14.7851 7.54045 14.7788 7.52551 14.7706 7.50665C14.7543 7.46895 14.7305 7.41554 14.699 7.34867C14.636 7.215 14.5419 7.02706 14.4149 6.80291C14.1614 6.3556 13.7735 5.75859 13.2347 5.15987C12.1563 3.96167 10.4478 2.73245 7.99995 2.73245V3.73245ZM14.3333 7.75626C13.8691 7.57057 13.8691 7.57039 13.8692 7.57023C13.8692 7.57019 13.8693 7.57005 13.8693 7.56999C13.8693 7.56986 13.8694 7.56981 13.8694 7.56982C13.8693 7.56984 13.8692 7.57013 13.869 7.57068C13.8686 7.57179 13.8677 7.57395 13.8663 7.57714C13.8637 7.58352 13.8593 7.59398 13.8531 7.60826C13.8407 7.63683 13.8212 7.68061 13.7944 7.73743C13.7408 7.85116 13.6582 8.01664 13.5449 8.2166C13.3177 8.61751 12.9704 9.15144 12.4914 9.68368C11.5341 10.7474 10.0759 11.7801 7.99995 11.7801V12.7801C10.4478 12.7801 12.1563 11.5508 13.2347 10.3526C13.7735 9.75394 14.1614 9.15692 14.4149 8.70961C14.5419 8.48546 14.636 8.29752 14.699 8.16386C14.7305 8.09698 14.7543 8.04357 14.7706 8.00587C14.7788 7.98702 14.7851 7.97208 14.7896 7.96134C14.7918 7.95597 14.7936 7.95164 14.7949 7.9484C14.7956 7.94678 14.7961 7.94543 14.7966 7.94436C14.7968 7.94382 14.797 7.94335 14.7971 7.94295C14.7972 7.94275 14.7973 7.9425 14.7974 7.9424C14.7974 7.94217 14.7975 7.94196 14.3333 7.75626ZM7.99996 9.06579C7.27673 9.06579 6.69044 8.47949 6.69044 7.75626H5.69044C5.69044 9.03178 6.72444 10.0658 7.99996 10.0658V9.06579ZM9.30948 7.75626C9.30948 8.47949 8.72319 9.06579 7.99996 9.06579V10.0658C9.27547 10.0658 10.3095 9.03178 10.3095 7.75626H9.30948ZM7.99996 6.44674C8.72319 6.44674 9.30948 7.03303 9.30948 7.75626H10.3095C10.3095 6.48075 9.27547 5.44674 7.99996 5.44674V6.44674ZM7.99996 5.44674C6.72444 5.44674 5.69044 6.48075 5.69044 7.75626H6.69044C6.69044 7.03303 7.27673 6.44674 7.99996 6.44674V5.44674Z" fill="#172765"/>
<line x1="3.80017" y1="11.9966" x2="13.13" y2="2.66672" stroke="white" stroke-width="2" stroke-linecap="round" stroke-linejoin="round"/>
<line x1="3.41296" y1="12.5251" x2="12.7059" y2="3.23224" stroke="#172765" stroke-linecap="round" stroke-linejoin="round"/>
</svg>
