<svg width="48" height="48" viewBox="0 0 48 48" fill="none" xmlns="http://www.w3.org/2000/svg">
<path d="M36.8001 36.8C35.0001 36.8 33.2001 36 31.8001 34.8L24.6001 27.6C24.0001 27 23.2001 27 22.8001 27.6L15.6001 34.8C14.2001 36.2 12.4001 36.8 10.6001 36.8H9.6001L18.8001 46C21.6001 48.8 26.2001 48.8 29.2001 46L38.4001 36.8H36.8001ZM27.0001 43.8C26.2001 44.6 25.2001 45 24.0001 45C22.8001 45 21.8001 44.6 21.0001 43.8L15.6001 38.4C16.4001 38 17.0001 37.4 17.6001 36.8L23.6001 30.8L29.6001 36.8C30.4001 37.6 31.2001 38.2 32.0001 38.6L27.0001 43.8Z" fill="#778899"/>
<path d="M15.9304 12.6696L15.9101 12.6493L15.8882 12.6305C14.6259 11.5486 13.0387 10.7477 11.3703 10.5175L19.3181 2.7424C22.0394 0.20857 26.171 0.234781 28.6668 2.72736L36.2256 10.458C34.3801 10.5371 32.5318 11.2076 31.0698 12.6696L23.8698 19.8696L23.8173 19.9222L23.7761 19.9839C23.7161 20.0739 23.651 20.1 23.5751 20.1C23.4828 20.1 23.3156 20.0548 23.1304 19.8696L15.9304 12.6696ZM30.3304 11.7303L30.3681 11.6926L30.4001 11.65C30.9112 10.9685 31.5961 10.4493 32.4786 10.0963L33.5347 9.67391L32.7304 8.86964L27.5304 3.66964C25.6375 1.77675 22.3627 1.77675 20.4698 3.66964L15.0698 9.06964L14.334 9.80544L15.2647 10.2708C15.5983 10.4376 15.9022 10.6519 16.2367 10.9147C16.3494 11.0032 16.4744 11.1047 16.6071 11.2125C16.8261 11.3903 17.0662 11.5853 17.3069 11.7674L23.2698 17.7303L23.8001 18.2606L24.3304 17.7303L30.3304 11.7303Z" fill="#778899" stroke="#778899" stroke-width="1.5"/>
<path d="M45.2698 19.3304L45.2789 19.3395L45.2884 19.3483C47.9668 21.8482 47.9687 26.1309 45.1062 28.6356L45.0874 28.652L45.0698 28.6697L39.8894 33.85H36.6001C35.5772 33.85 34.5751 33.5143 33.7304 32.6697L26.5497 25.489C25.0256 23.7387 22.3308 23.8086 20.6698 25.4697L13.4698 32.6697C12.8088 33.3306 11.5989 33.85 10.6001 33.85H7.91076L2.73979 28.6791C0.207715 25.9567 0.235822 21.825 2.73043 19.3304L7.91076 14.15H10.6001C11.5989 14.15 12.8088 14.6694 13.4698 15.3304L13.4697 15.3304L13.4771 15.3376L20.8737 22.5343C21.6162 23.2743 22.8052 23.75 23.8001 23.75C24.7967 23.75 25.9882 23.2726 26.7304 22.5304L33.9304 15.3304C34.5914 14.6694 35.8013 14.15 36.8001 14.15H40.0894L45.2698 19.3304ZM8.26977 32.1304L8.48944 32.35H8.8001H10.6001C10.9876 32.35 11.3441 32.2846 11.6797 32.1354C12.0121 31.9877 12.2862 31.7746 12.5304 31.5304L19.5304 24.5304L20.0608 24L19.5304 23.4697L12.5304 16.4697C11.9806 15.9198 11.1856 15.65 10.6001 15.65H8.8001H8.48944L8.26977 15.8697L3.66977 20.4697C1.77687 22.3626 1.77687 25.6375 3.66977 27.5304L8.26977 32.1304ZM39.2001 32.35H39.5108L39.7304 32.1304L44.3304 27.5304C45.2667 26.5941 45.7702 25.3791 45.5498 23.9386C45.5361 22.5792 45.0662 21.4055 44.1304 20.4697L39.5304 15.8697L39.3108 15.65H39.0001H36.8001C36.4126 15.65 36.0561 15.7155 35.7205 15.8647C35.3881 16.0124 35.114 16.2254 34.8698 16.4697L27.8698 23.4697L27.3319 24.0075L27.8773 24.5378L35.0738 31.5344C35.6235 32.0815 36.416 32.35 37.0001 32.35H39.2001Z" fill="#778899" stroke="#778899" stroke-width="1.5"/>
</svg>
