<svg width="130" height="21" viewBox="0 0 130 21" fill="none" xmlns="http://www.w3.org/2000/svg">
<g clip-path="url(#clip0)">
<path d="M43.0195 9.15286C43.0195 13.6009 39.7126 17.0248 35.3638 17.0248H29.064V1.2836H35.3638C39.7126 1.2836 43.0195 4.70208 43.0195 9.15286ZM39.5529 9.15286C39.5529 6.4505 37.8427 4.74532 35.3665 4.74532H32.6577V13.5577H35.3638C37.8427 13.5577 39.5529 11.8498 39.5529 9.15286Z" fill="#7007EA"/>
<path d="M55.6923 5.78058V17.0251H52.3177V15.9631C51.7089 16.7954 50.5831 17.3331 49.0974 17.3331C46.8243 17.3331 44.8894 15.7117 44.8894 12.6797V5.78058H48.2667V12.1852C48.2667 13.5796 49.1434 14.2308 50.2232 14.2308C51.4626 14.2308 52.3177 13.512 52.3177 11.9176V5.78058H55.6923Z" fill="#7007EA"/>
<path d="M69.7318 5.78003V17.0245H66.341V15.9625C65.5968 16.8164 64.4954 17.3326 62.9881 17.3326C60.0384 17.3326 57.6083 14.7491 57.6083 11.3874C57.6083 8.02569 60.0438 5.45575 62.9881 5.45575C64.4954 5.45575 65.5968 5.9719 66.341 6.82584V5.78003H69.7318ZM66.341 11.3982C66.341 9.71466 65.2152 8.65804 63.6619 8.65804C62.1086 8.65804 60.9828 9.71466 60.9828 11.3982C60.9828 13.0818 62.1086 14.1411 63.6619 14.1411C65.2152 14.1411 66.341 13.0845 66.341 11.3982Z" fill="#7007EA"/>
<path d="M72.1945 0.61087H75.569V17.025H72.1945V0.61087Z" fill="#7007EA"/>
<path d="M90.1358 11.3985C90.1358 14.7494 87.7003 17.3437 84.756 17.3437C83.2487 17.3437 82.1473 16.8275 81.4031 15.9736V17.0248H78.0259V1.2836H81.4031V6.83694C82.1473 5.98299 83.2487 5.46685 84.756 5.46685C87.7057 5.46685 90.1358 8.0503 90.1358 11.3985ZM86.7613 11.3985C86.7613 9.72846 85.6355 8.64752 84.0741 8.64752C82.5127 8.64752 81.395 9.70414 81.395 11.3877C81.395 13.0713 82.5208 14.1306 84.0741 14.1306C85.6274 14.1306 86.7613 13.0848 86.7613 11.3985Z" fill="#142766"/>
<path d="M103.599 5.78003V17.0245H100.222V15.9625C99.4774 16.8164 98.376 17.3326 96.8687 17.3326C93.919 17.3326 91.4889 14.7491 91.4889 11.3874C91.4889 8.02569 93.9244 5.45575 96.8687 5.45575C98.376 5.45575 99.4774 5.9719 100.222 6.82584V5.78003H103.599ZM100.222 11.3982C100.222 9.71466 99.0958 8.65804 97.5425 8.65804C95.9892 8.65804 94.8634 9.71466 94.8634 11.3982C94.8634 13.0818 95.9892 14.1411 97.5425 14.1411C99.0958 14.1411 100.222 13.0845 100.222 11.3982Z" fill="#142766"/>
<path d="M116.878 10.1173V17.0245H113.501V10.6118C113.501 9.22009 112.624 8.56612 111.544 8.56612C110.305 8.56612 109.45 9.28765 109.45 10.882V17.0245H106.075V5.78H109.45V6.83662C110.059 6.00429 111.184 5.46652 112.67 5.46652C114.943 5.46652 116.878 7.08253 116.878 10.1173Z" fill="#142766"/>
<path d="M126.176 17.0248L122.574 12.0525V17.0248H119.197V1.2836H122.574V10.7013L125.949 5.78032H129.889L125.792 11.3985L130.003 17.0248H126.176Z" fill="#142766"/>
<path d="M12.4157 21H0V15.752H2.97675V18.022H12.4049C13.4723 17.9557 14.4741 17.4855 15.2064 16.7073C15.9388 15.929 16.3465 14.9013 16.3465 13.8334C16.3465 12.7654 15.9388 11.7377 15.2064 10.9595C14.4741 10.1812 13.4723 9.71105 12.4049 9.6447H5.83443L0 0H2.97675L7.21997 6.66401H12.4157C14.2953 6.70045 16.0856 7.47167 17.402 8.81196C18.7183 10.1523 19.4557 11.9547 19.4557 13.832C19.4557 15.7093 18.7183 17.5118 17.402 18.852C16.0856 20.1923 14.2953 20.9636 12.4157 21Z" fill="url(#paint0_linear)"/>
<g opacity="0.21">
<path opacity="0.21" d="M9.9424 15.4789H0.649536V8.64733H3.62628V12.5063H9.9424C11.0097 12.4399 12.0116 11.9698 12.7439 11.1915C13.4763 10.4133 13.8839 9.38556 13.8839 8.31764C13.8839 7.24973 13.4763 6.22198 12.7439 5.44375C12.0116 4.66552 11.0097 4.19534 9.9424 4.12899H2.44912L0.649536 1.1564H9.9424C11.822 1.19285 13.6123 1.96406 14.9287 3.30436C16.245 4.64465 16.9824 6.44708 16.9824 8.3244C16.9824 10.2017 16.245 12.0042 14.9287 13.3444C13.6123 14.6847 11.822 15.456 9.9424 15.4924V15.4789Z" fill="#1D1D1B"/>
</g>
<path d="M9.29287 14.3359H0V7.49352H2.97675V11.3633H9.29287C9.86565 11.3989 10.4397 11.317 10.9795 11.1226C11.5194 10.9282 12.0137 10.6254 12.4319 10.233C12.8501 9.84054 13.1834 9.36672 13.4112 8.84073C13.6391 8.31474 13.7566 7.74772 13.7566 7.17464C13.7566 6.60155 13.6391 6.03454 13.4112 5.50854C13.1834 4.98255 12.8501 4.50873 12.4319 4.11629C12.0137 3.72385 11.5194 3.42109 10.9795 3.2267C10.4397 3.0323 9.86565 2.95038 9.29287 2.98599H1.8077L0 -0.00011357H9.29287C10.2472 -0.0186189 11.1957 0.153108 12.0828 0.505023C12.9699 0.856937 13.7778 1.38197 14.4593 2.04942C15.1408 2.71686 15.6821 3.51331 16.0517 4.39218C16.4213 5.27104 16.6116 6.21468 16.6116 7.16788C16.6116 8.12109 16.4213 9.06472 16.0517 9.94359C15.6821 10.8225 15.1408 11.6189 14.4593 12.2863C13.7778 12.9538 12.9699 13.4788 12.0828 13.8307C11.1957 14.1827 10.2472 14.3544 9.29287 14.3359Z" fill="url(#paint1_linear)"/>
</g>
<defs>
<linearGradient id="paint0_linear" x1="7.92627" y1="2.89422" x2="9.63185" y2="15.9661" gradientUnits="userSpaceOnUse">
<stop offset="0.26" stop-color="#7007EA"/>
<stop offset="1" stop-color="#142766"/>
</linearGradient>
<linearGradient id="paint1_linear" x1="11.5931" y1="-1.41074" x2="4.15887" y2="11.7721" gradientUnits="userSpaceOnUse">
<stop stop-color="#7007EA"/>
<stop offset="1" stop-color="#8037C6"/>
</linearGradient>
<clipPath id="clip0">
<rect width="130" height="21" fill="white"/>
</clipPath>
</defs>
</svg>
