<svg width="24" height="24" viewBox="0 0 24 24" fill="none" xmlns="http://www.w3.org/2000/svg">
<g clip-path="url(#clip0)">
<path d="M18.4 18.4C17.5 18.4 16.6 18 15.9 17.4L12.3 13.8C12 13.5 11.6 13.5 11.4 13.8L7.80005 17.4C7.10005 18.1 6.20005 18.4 5.30005 18.4H4.80005L9.40005 23C10.8 24.4 13.1 24.4 14.6 23L19.2 18.4H18.4ZM13.5 21.9C13.1 22.3 12.6 22.5 12 22.5C11.4 22.5 10.9 22.3 10.5 21.9L7.80005 19.2C8.20005 19 8.50005 18.7 8.80005 18.4L11.8 15.4L14.8 18.4C15.2 18.8 15.6 19.1 16 19.3L13.5 21.9Z" fill="#778899"/>
<path d="M8.23038 6.06966L8.21001 6.04929L8.18814 6.03055C7.68879 5.60253 7.08863 5.25131 6.43858 5.04627L8.94673 2.59264L7.26972 4.26966L6.53392 5.00545L7.46464 5.47081C7.59821 5.53759 7.72715 5.62688 7.88668 5.75223C7.93319 5.78876 7.99083 5.83552 8.05465 5.88729C8.16219 5.97453 8.28729 6.076 8.40618 6.16678L11.3697 9.13032L11.7894 9.54999L11.75 9.58933L8.23038 6.06966ZM11.8508 9.68681C11.8508 9.68685 11.8503 9.68657 11.8492 9.68588L11.8508 9.68681Z" fill="#778899" stroke="#778899" stroke-width="1.5"/>
<path d="M22.3697 9.93034L22.3789 9.93948L22.3883 9.9483C23.2081 10.7134 23.4585 11.8573 23.1101 12.8546C23.1792 12.5703 23.196 12.2642 23.1495 11.9391C23.1359 11.1786 22.866 10.5053 22.3304 9.96968L20.0304 7.66968L19.8107 7.45001H19.8894L22.3697 9.93034ZM10.0304 11.4697L7.26221 8.70152L10.1738 11.5344C10.346 11.7057 10.5557 11.8521 10.7826 11.967C10.6046 12.0514 10.4344 12.1573 10.2767 12.284L10.5607 12L10.0304 11.4697ZM13.5488 12.4881C13.3696 12.2846 13.1652 12.1232 12.9451 12.0023C13.1229 11.9188 13.2916 11.8162 13.442 11.6974L13.1319 12.0075L13.6772 12.5378L17.274 16.0346C17.6231 16.3811 18.1147 16.5495 18.4985 16.55H18.3C17.8771 16.55 17.475 16.4143 17.1304 16.0697L13.5488 12.4881Z" fill="#778899" stroke="#778899" stroke-width="1.5"/>
</g>
<defs>
<clipPath id="clip0">
<rect width="24" height="24" fill="white"/>
</clipPath>
</defs>
</svg>
