<svg width="24" height="24" viewBox="0 0 24 24" fill="none" xmlns="http://www.w3.org/2000/svg">
<path d="M11.4998 2.42622L3.93846 3.93849L2.42619 11.4998C2.40197 11.6209 2.40802 11.7461 2.4438 11.8643C2.47958 11.9824 2.54398 12.09 2.63129 12.1773L12.4237 21.9697C12.4934 22.0394 12.5761 22.0946 12.6671 22.1323C12.7581 22.17 12.8556 22.1894 12.9541 22.1894C13.0526 22.1894 13.1501 22.17 13.2411 22.1323C13.3321 22.0946 13.4148 22.0394 13.4844 21.9697L21.9697 13.4844C22.0393 13.4148 22.0946 13.3321 22.1323 13.2411C22.17 13.1501 22.1894 13.0526 22.1894 12.9541C22.1894 12.8556 22.17 12.7581 22.1323 12.6671C22.0946 12.5761 22.0393 12.4934 21.9697 12.4238L12.1772 2.63132C12.0899 2.54401 11.9824 2.47961 11.8642 2.44383C11.7461 2.40805 11.6209 2.402 11.4998 2.42622V2.42622Z" stroke="#172765" stroke-width="1.5" stroke-linecap="round" stroke-linejoin="round"/>
<path d="M7.875 8.8125C8.39277 8.8125 8.8125 8.39277 8.8125 7.875C8.8125 7.35723 8.39277 6.9375 7.875 6.9375C7.35723 6.9375 6.9375 7.35723 6.9375 7.875C6.9375 8.39277 7.35723 8.8125 7.875 8.8125Z" fill="#172765"/>
</svg>
