<svg width="24" height="24" viewBox="0 0 24 24" fill="none" xmlns="http://www.w3.org/2000/svg">
<path d="M17.343 3.47501L13.4091 7.40894L13.9394 10.0606L16.5911 10.5909L20.525 6.65699L20.5254 6.65683C21.0123 7.80623 21.1288 9.07885 20.8585 10.2975C20.5883 11.5162 19.9448 12.6203 19.0177 13.4562C18.0906 14.2921 16.9259 14.8181 15.6859 14.961C14.4458 15.104 13.192 14.8567 12.099 14.2537L12.0991 14.2535L6.84106 20.3409C6.41902 20.7625 5.84685 20.9992 5.25034 20.999C4.65382 20.9989 4.08179 20.7618 3.65999 20.34C3.23819 19.9182 3.00115 19.3462 3.00098 18.7497C3.00081 18.1531 3.23752 17.581 3.65908 17.1589L9.7464 11.9009L9.74627 11.901C9.14326 10.808 8.89603 9.55422 9.03897 8.31414C9.18191 7.07407 9.70793 5.90941 10.5438 4.98228C11.3796 4.05516 12.4838 3.4117 13.7025 3.14148C14.9211 2.87125 16.1938 2.98771 17.3432 3.47463L17.343 3.47501Z" stroke="#172765" stroke-width="1.5" stroke-linecap="round" stroke-linejoin="round"/>
</svg>
